HIERARCHY
ROOT Hips
{
 OFFSET 0.000000 0.000000 0.000000
 CHANNELS 6 Xposition Yposition Zposition Yrotation Xrotation Zrotation
 JOINT Chest
 {
  OFFSET 0.000000 9.588913 -0.003946
  CHANNELS 3 Yrotation Xrotation Zrotation
  JOINT Chest2
  {
   OFFSET 0.000000 9.541882 0.008053
   CHANNELS 3 Yrotation Xrotation Zrotation
   JOINT Chest3
   {
    OFFSET 0.000000 9.501360 0.000000
    CHANNELS 3 Yrotation Xrotation Zrotation
    JOINT Chest4
    {
     OFFSET 0.000000 9.491660 0.000000
     CHANNELS 3 Yrotation Xrotation Zrotation
     JOINT Neck
     {
      OFFSET 0.000000 14.331917 0.000000
      CHANNELS 3 Yrotation Xrotation Zrotation
      JOINT Head
      {
       OFFSET 0.000000 8.884799 0.017034
       CHANNELS 3 Yrotation Xrotation Zrotation
       End Site
       {
        OFFSET 0.000000 16.896195 0.008993
       }
      }
     }
     JOINT RightCollar
     {
      OFFSET -2.923010 9.499495 0.000000
      CHANNELS 3 Yrotation Xrotation Zrotation
      JOINT RightShoulder
      {
       OFFSET -13.795216 0.000000 0.000000
       CHANNELS 3 Yrotation Xrotation Zrotation
       JOINT RightElbow
       {
        OFFSET -30.272209 0.000000 0.000000
        CHANNELS 3 Yrotation Xrotation Zrotation
        JOINT RightWrist
        {
         OFFSET -24.478199 0.000000 0.000000
         CHANNELS 3 Yrotation Xrotation Zrotation
         End Site
         {
          OFFSET -18.090752 0.000000 0.000000
         }
        }
       }
      }
     }
     JOINT LeftCollar
     {
      OFFSET 2.923010 9.499495 0.000000
      CHANNELS 3 Yrotation Xrotation Zrotation
      JOINT LeftShoulder
      {
       OFFSET 13.795216 0.000000 0.000000
       CHANNELS 3 Yrotation Xrotation Zrotation
       JOINT LeftElbow
       {
        OFFSET 30.272209 0.000000 0.000000
        CHANNELS 3 Yrotation Xrotation Zrotation
        JOINT LeftWrist
        {
         OFFSET 24.478199 0.000000 0.000000
         CHANNELS 3 Yrotation Xrotation Zrotation
         End Site
         {
          OFFSET 18.090752 0.000000 0.000000
         }
        }
       }
      }
     }
    }
   }
  }
 }
 JOINT RightHip
 {
  OFFSET -7.826875 0.019532 0.001973
  CHANNELS 3 Yrotation Xrotation Zrotation
  JOINT RightKnee
  {
   OFFSET 0.000000 -40.546152 -0.001885
   CHANNELS 3 Yrotation Xrotation Zrotation
   JOINT RightAnkle
   {
    OFFSET 0.000000 -39.417092 -0.003189
    CHANNELS 3 Yrotation Xrotation Zrotation
    JOINT RightToe
    {
     OFFSET 0.000000 -7.579396 17.243563
     CHANNELS 3 Yrotation Xrotation Zrotation
     End Site
     {
      OFFSET 0.000000 -1.500329 6.694466
     }
    }
   }
  }
 }
 JOINT LeftHip
 {
  OFFSET 7.826875 0.019532 0.001973
  CHANNELS 3 Yrotation Xrotation Zrotation
  JOINT LeftKnee
  {
   OFFSET 0.000000 -40.546152 -0.001885
   CHANNELS 3 Yrotation Xrotation Zrotation
   JOINT LeftAnkle
   {
    OFFSET 0.000000 -39.417092 -0.003189
    CHANNELS 3 Yrotation Xrotation Zrotation
    JOINT LeftToe
    {
     OFFSET 0.000000 -7.579396 17.243563
     CHANNELS 3 Yrotation Xrotation Zrotation
     End Site
     {
      OFFSET 0.000000 -1.500329 6.694466
     }
    }
   }
  }
 }
}
MOTION
Frames: 9
Frame Time: 0.008333
-2.249069 87.294678 18.321377 -37.293878 -12.627378 -0.419484 5.714990 8.598612 -5.555168 3.397213 4.639742 -2.726267 4.215088 5.823915 -3.367104 3.397210 4.639750 -2.726267 -15.323671 9.604930 10.881854 -21.855064 -14.498842 17.534785 -4.249150 -3.596977 -14.741999 -19.774348 -24.954034 32.206274 65.915767 -28.584717 13.851678 -3.335157 -11.248272 12.819841 -2.637962 -0.820026 6.240629 25.266500 4.476429 -74.084011 -56.228368 -6.923501 -31.857146 2.877916 2.543991 0.995355 -12.356852 -4.385507 -6.361328 -2.666499 45.927603 -5.821833 0.587420 -9.879940 11.176873 1.157999 -19.182120 -3.097532 -4.142057 4.422299 -2.265516 -8.290723 22.634223 -1.680782 -4.520576 -13.739692 3.250596 -0.025729 1.082394 0.012897
-2.114426 87.274357 18.382092 -37.450553 -12.730724 -0.335824 5.654091 8.576991 -5.520911 3.361887 4.626572 -2.694818 4.171381 5.806927 -3.328326 3.361884 4.626580 -2.694817 -15.247778 9.663731 10.867147 -21.736488 -14.440803 17.479318 -4.378035 -3.480176 -14.601207 -20.006741 -24.612874 32.379912 66.602964 -28.412558 14.466325 -3.171675 -11.207571 12.626778 -2.636273 -0.831514 6.195522 25.171916 4.488732 -74.157306 -56.174425 -6.887679 -31.779521 2.862711 2.539217 0.980807 -12.216297 -4.482258 -6.495551 -2.685399 46.128658 -5.925943 0.624361 -9.799734 11.272559 1.157538 -19.282395 -3.073661 -4.105201 4.552637 -2.450007 -8.211696 22.544523 -1.653439 -4.504130 -13.695831 3.328524 -0.025486 1.089715 0.010369
-1.983234 87.254459 18.439121 -37.605371 -12.821835 -0.268002 5.591670 8.548143 -5.475644 3.325854 4.610782 -2.661948 4.126821 5.786652 -3.287799 3.325851 4.610790 -2.661947 -15.164245 9.722551 10.851449 -21.607243 -14.383819 17.419807 -4.504898 -3.376718 -14.463784 -20.248744 -24.286106 32.589652 67.307691 -28.203130 15.072473 -3.036733 -11.110976 12.456643 -2.627144 -0.840516 6.155597 25.082219 4.503700 -74.236810 -56.114375 -6.863778 -31.713667 2.841078 2.532412 0.964892 -12.083156 -4.565323 -6.607132 -2.701766 46.293955 -6.026146 0.657723 -9.736336 11.356424 1.151661 -19.352557 -3.042081 -4.076985 4.668342 -2.634554 -8.131537 22.467415 -1.625123 -4.385192 -13.661390 3.390544 -0.016856 1.094135 0.013943
-1.854690 87.234971 18.492724 -37.754449 -12.900461 -0.211322 5.527898 8.513361 -5.423459 3.289232 4.592182 -2.627831 4.081554 5.762856 -3.245740 3.289229 4.592190 -2.627830 -15.077007 9.782991 10.832328 -21.471657 -14.325769 17.354328 -4.624291 -3.288922 -14.335960 -20.517532 -23.965671 32.851881 68.010797 -27.987539 15.703417 -2.868686 -10.998801 12.259953 -2.616542 -0.848120 6.122105 24.995800 4.525277 -74.322404 -56.049470 -6.851414 -31.658709 2.813754 2.522728 0.950293 -11.955794 -4.637399 -6.703741 -2.715096 46.427760 -6.115728 0.682640 -9.690984 11.426140 1.142838 -19.393010 -3.001730 -4.059562 4.764372 -2.809878 -8.057281 22.403401 -1.595550 -4.239742 -13.631799 3.443983 -0.007679 1.095766 0.017675
-1.728393 87.215939 18.543125 -37.899658 -12.967622 -0.162289 5.464865 8.473620 -5.367787 3.253144 4.571222 -2.592808 4.036977 5.736114 -3.202555 3.253141 4.571230 -2.592807 -14.989023 9.846194 10.809741 -21.333665 -14.264928 17.283815 -4.732805 -3.218921 -14.212953 -20.816390 -23.634994 33.166117 68.701604 -27.795148 16.376218 -2.638901 -10.922952 12.000392 -2.606847 -0.855466 6.094522 24.908478 4.553578 -74.414937 -55.981106 -6.844656 -31.609282 2.782153 2.509775 0.938611 -11.826179 -4.700847 -6.790899 -2.727867 46.535443 -6.191711 0.699848 -9.662061 11.484204 1.130086 -19.407500 -2.955070 -4.046438 4.843361 -2.974738 -7.988570 22.348017 -1.566615 -4.089555 -13.604510 3.493925 0.000677 1.095312 0.020434
-1.604178 87.197452 18.590463 -38.048624 -13.024607 -0.117765 5.408652 8.429801 -5.311730 3.219045 4.548792 -2.556790 3.994905 5.707545 -3.158108 3.219041 4.548800 -2.556789 -14.902618 9.912072 10.785654 -21.197228 -14.200887 17.211764 -4.838603 -3.160222 -14.081869 -21.130804 -23.280069 33.510950 69.389239 -27.656230 17.080170 -2.359552 -10.917136 11.667629 -2.600376 -0.863772 6.072673 24.817796 4.587938 -74.513913 -55.915059 -6.839922 -31.560259 2.747754 2.496279 0.927025 -11.686272 -4.757037 -6.871824 -2.743645 46.619185 -6.255118 0.712913 -9.648226 11.532918 1.113457 -19.397473 -2.904761 -4.024903 4.904780 -3.108602 -7.928557 22.298715 -1.540984 -4.042702 -13.575279 3.552227 -0.000304 1.095273 0.016810
-1.482167 87.179572 18.634293 -38.198748 -13.070743 -0.080402 5.357808 8.380681 -5.251659 3.186484 4.524909 -2.519672 3.954776 5.677167 -3.112273 3.186480 4.524917 -2.519670 -14.818853 9.981002 10.761016 -21.064115 -14.132972 17.139793 -4.954427 -3.092547 -13.934088 -21.445752 -22.910332 33.850557 70.083689 -27.584740 17.800139 -2.054955 -10.975095 11.287499 -2.595092 -0.872058 6.055151 24.721621 4.628104 -74.619479 -55.856719 -6.835811 -31.507832 2.714613 2.485564 0.913941 -11.542345 -4.807642 -6.944235 -2.763427 46.679951 -6.309390 0.725301 -9.647268 11.574126 1.093421 -19.365441 -2.852593 -3.992004 4.953844 -3.229446 -7.868621 22.252933 -1.516815 -4.005683 -13.547433 3.614714 -0.001107 1.094782 0.011380
-1.362040 87.162443 18.674799 -38.346583 -13.106438 -0.048576 5.308568 8.326516 -5.187836 3.154101 4.498943 -2.481543 3.914889 5.644185 -3.065185 3.154097 4.498951 -2.481542 -14.736346 10.052900 10.734424 -20.931921 -14.061620 17.065559 -5.083577 -3.006577 -13.770856 -21.767302 -22.547030 34.164077 70.792411 -27.561200 18.530139 -1.741439 -11.057816 10.901958 -2.583976 -0.877792 6.039845 24.620478 4.670324 -74.732467 -55.804029 -6.826419 -31.449663 2.682680 2.475725 0.897060 -11.401246 -4.853448 -7.009558 -2.784857 46.718455 -6.357851 0.736129 -9.658804 11.611366 1.071369 -19.310048 -2.800190 -3.949151 4.992360 -3.340741 -7.815604 22.207323 -1.495439 -3.968220 -13.519574 3.678812 -0.000874 1.094392 0.006249
-1.243817 87.146317 18.712389 -38.492538 -13.134238 -0.020530 5.260838 8.268881 -5.121563 3.121411 4.471045 -2.441779 3.874645 5.608778 -3.016064 3.121408 4.471053 -2.441777 -14.654838 10.125903 10.702941 -20.799438 -13.989390 16.985339 -5.221055 -2.909291 -13.601354 -22.113653 -22.200190 34.463697 71.529977 -27.540746 19.266072 -1.432566 -11.116787 10.529013 -2.566718 -0.877938 6.022066 24.519466 4.706983 -74.850174 -55.748973 -6.807240 -31.389480 2.648203 2.464798 0.877839 -11.266220 -4.892269 -7.069990 -2.804993 46.733968 -6.400872 0.744470 -9.682818 11.646683 1.049777 -19.225350 -2.749449 -3.899892 5.018911 -3.427384 -7.782143 22.162456 -1.479861 -4.003425 -13.488546 3.745620 -0.007774 1.095630 -0.000763
